<?xml version="1.0" encoding="UTF-8"?>
<!DOCTYPE svg PUBLIC "-//W3C//DTD SVG 1.1//EN" "http://www.w3.org/Graphics/SVG/1.1/DTD/svg11.dtd">
<!-- Creator: CorelDRAW 2020 -->
<svg xmlns="http://www.w3.org/2000/svg" xml:space="preserve" width="120px" height="120px" version="1.1" style="shape-rendering:geometricPrecision; text-rendering:geometricPrecision; image-rendering:optimizeQuality; fill-rule:evenodd; clip-rule:evenodd"
viewBox="0 0 30000 30000"
 xmlns:xlink="http://www.w3.org/1999/xlink"
 xmlns:xodm="http://www.corel.com/coreldraw/odm/2003">
 <defs>
  <style type="text/css">
   <![CDATA[
    .fil0 {fill:#fff;fill-rule:nonzero}
    .fil1 {fill:#fff;fill-rule:nonzero}
   ]]>
  </style>
 </defs>
 <g id="Capa_x0020_1">
  <metadata id="CorelCorpID_0Corel-Layer"/>
  <g id="_763159248">
   <path class="fil0" d="M13668.29 12114.96l-1761.64 0 0 -795.65 1761.64 -2094.99 841.89 0 0 2141.22 437.97 0 0 749.42 -437.97 0 0 652.1 -841.89 0 0 -652.1zm0 -749.42l0 -1099.81 -930.29 1099.81 930.29 0z"/>
   <path class="fil0" d="M14831.39 11229.28l2296.94 0 0 773.76 -1555.62 0 -82.73 521.51c107.06,-50.29 213.31,-88.41 318.75,-113.55 105.43,-25.14 209.25,-38.12 312.26,-38.12 347.94,0 631.01,105.44 847.56,316.32 216.56,210.06 325.24,475.28 325.24,795.65 0,224.67 -55.96,440.41 -167.08,648.05 -111.93,207.63 -270.09,365.79 -475.29,475.28 -205.2,109.5 -467.98,163.84 -787.54,163.84 -229.53,0 -426.62,-21.9 -590.46,-65.7 -163.83,-42.99 -303.34,-108.68 -417.7,-194.66 -115.17,-86.78 -207.63,-184.11 -279,-293.6 -71.38,-109.5 -130.59,-245.75 -178.44,-409.59l978.15 -107.06c23.52,157.35 79.48,277.38 166.27,359.3 87.59,81.92 191.41,122.47 311.45,122.47 135.44,0 246.56,-51.09 334.16,-153.29 88.4,-102.19 132.2,-254.67 132.2,-457.44 0,-207.63 -44.61,-359.3 -133.02,-455.82 -88.4,-96.52 -206.82,-145.18 -353.62,-145.18 -93.27,0 -184.11,22.71 -270.9,68.94 -64.88,33.25 -136.26,93.27 -213.31,180.87l-824.85 -119.23 306.58 -1872.75z"/>
   <path class="fil0" d="M5491.86 18603.22l435.17 150.04c-29.16,139.34 -75.14,256.04 -138.32,349.22 -62.81,93.62 -140.57,164.14 -234.04,211.59 -93.09,47.45 -211.61,71.39 -355.54,71.39 -174.96,0 -317.41,-29.07 -428.44,-86.78 -110.66,-58.13 -206,-160.29 -286.38,-306.05 -80.37,-145.76 -120.75,-332.99 -120.75,-560.39 0,-303.49 70.66,-536.88 211.98,-700.17 141.69,-162.86 341.7,-244.5 600.41,-244.5 202.26,0 361.52,46.59 477.42,140.21 115.52,93.61 201.88,237.23 257.96,431.29l-437.42 110.71c-15.32,-55.56 -31.4,-96.17 -48.22,-121.82 -28.04,-43.17 -62.07,-76.51 -102.06,-99.6 -40.38,-23.51 -85.24,-35.05 -134.97,-35.05 -112.9,0 -199.26,51.72 -259.08,154.74 -45.24,76.51 -68.04,197.06 -68.04,360.77 0,203.47 26.91,342.39 81.12,418.05 54.21,75.23 130.11,112.84 228.06,112.84 94.95,0 166.73,-30.34 215.34,-91.47 48.6,-60.7 83.74,-149.18 105.8,-265.02zm612.01 -165.42c0,-299.65 72.91,-533.04 219.08,-699.74 146.18,-167.14 349.56,-250.49 610.51,-250.49 267.31,0 473.3,82.07 617.98,245.79 144.69,164.14 216.85,394.11 216.85,689.48 0,214.58 -31.41,390.26 -94.59,527.47 -63.18,137.21 -154.77,244.08 -274.04,320.59 -119.64,76.51 -268.43,114.56 -446.76,114.56 -180.94,0 -330.86,-32.92 -449.75,-98.74 -118.51,-66.26 -214.96,-170.56 -288.62,-313.33 -73.65,-142.34 -110.66,-321.01 -110.66,-535.59zm495.73 1.28c0,185.09 30.29,318.45 90.48,399.24 60.56,80.79 142.81,121.39 246.74,121.39 106.56,0 189.55,-39.75 247.87,-118.83 58.7,-79.5 87.86,-221.42 87.86,-427.02 0,-172.69 -30.66,-298.79 -91.6,-378.3 -61.31,-79.93 -143.93,-119.68 -248.61,-119.68 -100.19,0 -180.95,40.61 -241.51,121.39 -60.94,80.79 -91.23,215.01 -91.23,401.81zm1440.1 -920.73l463.22 0 602.28 1013.91 0 -1013.91 468.81 0 0 1836.33 -468.81 0 -598.92 -1008.36 0 1008.36 -466.58 0 0 -1836.33zm1778.81 1228.92l471.07 -33.77c10.1,87.2 31.03,153.89 62.44,199.19 51.21,73.95 124.11,111.14 219.08,111.14 70.65,0 125.24,-18.81 163.37,-56.85 38.51,-38.04 57.58,-82.07 57.58,-132.08 0,-47.45 -17.95,-90.19 -54.21,-127.81 -36.26,-37.62 -120.76,-72.67 -253.48,-106.43 -217.58,-55.57 -372.37,-129.95 -465.08,-222.71 -93.47,-92.33 -140.2,-210.3 -140.2,-353.93 0,-94.04 23.93,-182.95 71.78,-266.73 47.86,-84.2 119.64,-150.03 215.72,-197.91 96.09,-47.87 227.68,-71.81 394.79,-71.81 205.25,0 361.53,43.6 469.19,131.23 107.68,87.2 171.61,226.12 192.17,416.76l-466.58 31.64c-12.33,-83.36 -38.5,-144.06 -78.13,-181.67 -40,-38.04 -94.96,-56.85 -164.87,-56.85 -57.58,0 -101.32,14.1 -130.48,41.89 -29.16,27.78 -43.74,61.98 -43.74,102.16 0,29.07 11.97,55.14 35.52,78.65 22.8,24.36 78.13,46.59 165.62,67.54 216.83,53.43 371.98,107.72 465.45,162.43 93.83,54.71 162.26,122.25 204.88,203.47 42.62,80.78 63.92,171.4 63.92,271.86 0,117.54 -28.41,226.12 -85.24,325.71 -57.2,99.17 -136.46,174.83 -238.89,226.13 -102.06,51.29 -230.68,76.94 -386.2,76.94 -272.92,0 -462.09,-60.27 -567.14,-180.39 -105.05,-120.11 -164.5,-272.71 -178.34,-457.8zm1593.02 -1228.92l1509.64 0 0 453.95 -506.95 0 0 1382.38 -495.74 0 0 -1382.38 -506.95 0 0 -453.95zm1738.82 1836.33l0 -1836.33 826.97 0c153.29,0 270.68,14.96 351.43,45.31 81.12,29.92 146.55,85.92 196.28,167.13 49.72,81.64 74.39,181.24 74.39,298.36 0,101.74 -19.07,189.79 -57.2,263.74 -37.76,74.38 -90.1,134.22 -157.02,180.38 -42.24,29.07 -100.56,53.44 -174.22,72.67 59.08,22.66 102.06,44.88 128.99,67.54 17.94,14.96 44.49,47.45 79.25,96.6 34.39,49.16 57.58,87.2 69.17,114.13l241.13 530.47 -560.78 0 -265.07 -559.96c-33.65,-72.67 -63.55,-119.69 -89.73,-141.49 -35.88,-28.21 -76.63,-42.32 -121.87,-42.32l-43.75 0 0 743.77 -497.97 0zm497.97 -1090l209.74 0c22.43,0 66.55,-8.55 131.6,-25.22 32.9,-7.27 59.82,-26.5 80.38,-57.71 20.94,-31.2 31.4,-66.68 31.4,-106.86 0,-59.42 -16.44,-105.15 -49.35,-136.78 -32.89,-32.06 -94.58,-47.88 -185.43,-47.88l-218.34 0 0 374.45zm2246.9 -746.33l495.73 0 0 1093.85c0,108.14 -14.95,210.73 -44.49,306.91 -29.54,96.6 -75.89,180.81 -139.07,253.05 -63.19,72.24 -129.36,122.68 -198.53,152.17 -96.45,40.61 -212.34,61.13 -347.31,61.13 -78.14,0 -163.37,-6.42 -255.72,-18.81 -92.34,-12.4 -169.73,-37.19 -231.79,-74.38 -62.06,-37.19 -118.89,-89.76 -170.11,-158.16 -51.58,-68.39 -86.72,-138.92 -105.79,-211.58 -30.66,-116.7 -45.99,-220.14 -45.99,-310.33l0 -1093.85 495.74 0 0 1119.92c0,100.02 24.29,178.25 72.53,234.24 48.59,56.43 115.9,84.64 201.88,84.64 84.86,0 151.78,-27.78 200.38,-83.35 48.23,-55.14 72.54,-133.8 72.54,-235.53l0 -1119.92zm1893.21 1084.87l435.17 150.04c-29.16,139.34 -75.14,256.04 -138.32,349.22 -62.81,93.62 -140.57,164.14 -234.04,211.59 -93.09,47.45 -211.61,71.39 -355.54,71.39 -174.96,0 -317.41,-29.07 -428.44,-86.78 -110.66,-58.13 -206,-160.29 -286.38,-306.05 -80.37,-145.76 -120.75,-332.99 -120.75,-560.39 0,-303.49 70.66,-536.88 211.98,-700.17 141.69,-162.86 341.7,-244.5 600.41,-244.5 202.26,0 361.52,46.59 477.42,140.21 115.52,93.61 201.88,237.23 257.96,431.29l-437.42 110.71c-15.32,-55.56 -31.4,-96.17 -48.22,-121.82 -28.04,-43.17 -62.07,-76.51 -102.06,-99.6 -40.38,-23.51 -85.24,-35.05 -134.97,-35.05 -112.9,0 -199.26,51.72 -259.09,154.74 -45.23,76.51 -68.03,197.06 -68.03,360.77 0,203.47 26.91,342.39 81.12,418.05 54.21,75.23 130.11,112.84 228.06,112.84 94.95,0 166.73,-30.34 215.34,-91.47 48.6,-60.7 83.74,-149.18 105.8,-265.02zm562.66 -1084.87l1509.64 0 0 453.95 -506.96 0 0 1382.38 -495.73 0 0 -1382.38 -506.95 0 0 -453.95zm1752.28 0l497.97 0 0 1836.33 -497.97 0 0 -1836.33zm789.96 919.45c0,-299.65 72.9,-533.04 219.08,-699.74 146.18,-167.14 349.56,-250.49 610.51,-250.49 267.31,0 473.3,82.07 617.98,245.79 144.69,164.14 216.85,394.11 216.85,689.48 0,214.58 -31.41,390.26 -94.59,527.47 -63.19,137.21 -154.78,244.08 -274.04,320.59 -119.64,76.51 -268.43,114.56 -446.76,114.56 -180.95,0 -330.86,-32.92 -449.75,-98.74 -118.51,-66.26 -214.97,-170.56 -288.62,-313.33 -73.65,-142.34 -110.66,-321.01 -110.66,-535.59zm495.73 1.28c0,185.09 30.29,318.45 90.48,399.24 60.56,80.79 142.81,121.39 246.74,121.39 106.56,0 189.55,-39.75 247.87,-118.83 58.69,-79.5 87.86,-221.42 87.86,-427.02 0,-172.69 -30.66,-298.79 -91.6,-378.3 -61.31,-79.93 -143.93,-119.68 -248.62,-119.68 -100.18,0 -180.94,40.61 -241.51,121.39 -60.93,80.79 -91.22,215.01 -91.22,401.81zm1440.1 -920.73l463.22 0 602.28 1013.91 0 -1013.91 468.81 0 0 1836.33 -468.81 0 -598.92 -1008.36 0 1008.36 -466.58 0 0 -1836.33z"/>
   <path class="fil0" d="M8281.75 21159.68l185.21 46.79c-38.66,151.74 -108.2,267.09 -208.6,346.7 -100.4,79.61 -223.23,119.57 -368.47,119.57 -150.12,0 -272.29,-30.54 -366.52,-91.95 -94.23,-61.09 -165.72,-149.79 -214.78,-265.79 -49.07,-116.33 -73.76,-240.78 -73.76,-374 0,-145.24 27.62,-271.96 83.18,-380.17 55.56,-108.2 134.52,-190.4 236.88,-246.62 102.35,-56.21 215.1,-84.15 337.92,-84.15 139.72,0 257.02,35.41 351.9,106.57 95.21,71.16 161.49,170.92 198.86,299.59l-181.31 42.89c-32.17,-101.38 -79.29,-175.46 -140.7,-221.6 -61.41,-46.47 -138.74,-69.54 -232,-69.54 -106.9,0 -196.58,25.67 -268.39,77.01 -71.81,51.34 -122.5,120.55 -151.42,206.98 -29.24,86.76 -43.86,176.11 -43.86,268.07 0,118.6 17.22,222.25 51.66,310.63 34.44,88.71 88.06,154.67 160.84,198.53 72.79,43.87 151.42,65.64 236.23,65.64 103.32,0 190.41,-29.89 261.89,-89.36 71.48,-59.78 119.9,-148.16 145.24,-265.79zm357.1 -189.76c0,-231.35 62.39,-412.66 186.83,-543.61 124.45,-130.94 284.97,-196.25 481.88,-196.25 128.99,0 244.99,30.86 348.65,92.28 103.32,61.41 182.28,147.19 236.54,257.34 54.27,109.83 81.56,234.6 81.56,373.99 0,141.35 -28.59,268.07 -85.78,379.52 -57.19,111.78 -138.09,196.26 -242.72,253.45 -104.95,57.51 -218.03,86.1 -339.23,86.1 -131.6,0 -248.9,-31.84 -352.55,-95.2 -103.33,-63.36 -181.96,-149.79 -235.25,-259.62 -53.29,-109.5 -79.93,-225.5 -79.93,-348zm191.06 3.25c0,167.99 45.16,300.24 135.49,396.74 90.34,96.5 203.74,144.92 340.21,144.92 139.07,0 253.12,-48.74 343.12,-146.22 89.68,-97.48 134.52,-235.9 134.52,-415.26 0,-113.4 -19.17,-212.5 -57.51,-296.99 -38.34,-84.48 -94.55,-150.11 -168.31,-196.58 -74.09,-46.46 -156.94,-69.86 -248.9,-69.86 -130.62,0 -243.05,44.84 -337.28,134.52 -94.23,89.68 -141.34,239.15 -141.34,448.73zm1385.83 676.18l0 -1395.9 618.66 0c124.45,0 219.01,12.67 283.67,37.69 64.66,25.02 116.32,69.21 154.99,132.57 38.67,63.37 57.84,133.55 57.84,210.23 0,99.11 -32.17,182.61 -96.18,250.52 -64.01,67.92 -162.79,110.81 -296.66,129.33 49.06,23.39 86.1,46.79 111.45,69.53 53.94,49.39 104.95,111.45 152.71,185.86l241.43 380.17 -230.7 0 -184.56 -290.49c-53.62,-84.15 -98.13,-148.17 -132.9,-192.68 -35.09,-44.52 -66.29,-75.38 -93.9,-93.26 -27.3,-17.54 -55.57,-29.89 -84.16,-37.04 -20.8,-4.22 -54.91,-6.5 -102.68,-6.5l-213.8 0 0 619.97 -185.21 0zm185.21 -779.83l396.41 0c84.48,0 150.12,-8.78 197.56,-26.32 47.44,-17.22 83.51,-45.17 107.88,-83.83 24.69,-38.34 37.04,-79.94 37.04,-125.1 0,-65.96 -23.72,-120.55 -71.49,-163.12 -47.76,-42.56 -123.15,-63.68 -226.15,-63.68l-441.25 0 0 462.05zm1218.81 779.83l0 -1395.9 527.03 0c92.61,0 163.44,4.55 212.51,13.32 68.56,11.38 126.07,33.15 172.54,64.99 46.46,32.17 83.83,77.01 112.1,134.52 28.27,57.51 42.24,120.87 42.24,190.08 0,118.28 -37.69,218.68 -113.4,300.56 -75.39,82.21 -212.18,123.15 -409.74,123.15l-358.07 0 0 569.28 -185.21 0zm185.21 -733.04l360.67 0c119.57,0 204.06,-22.1 254.42,-66.61 50.04,-44.52 75.06,-106.9 75.06,-187.81 0,-58.16 -14.62,-108.2 -44.19,-149.79 -29.57,-41.6 -68.56,-69.22 -116.65,-82.54 -31.19,-8.12 -88.71,-12.34 -172.21,-12.34l-357.1 0 0 499.09zm1058.62 53.61c0,-231.35 62.39,-412.66 186.83,-543.61 124.45,-130.94 284.97,-196.25 481.88,-196.25 128.99,0 244.99,30.86 348.65,92.28 103.32,61.41 182.28,147.19 236.54,257.34 54.27,109.83 81.56,234.6 81.56,373.99 0,141.35 -28.59,268.07 -85.78,379.52 -57.19,111.78 -138.09,196.26 -242.72,253.45 -104.95,57.51 -218.03,86.1 -339.23,86.1 -131.6,0 -248.9,-31.84 -352.55,-95.2 -103.33,-63.36 -181.96,-149.79 -235.25,-259.62 -53.29,-109.5 -79.93,-225.5 -79.93,-348zm191.06 3.25c0,167.99 45.16,300.24 135.49,396.74 90.34,96.5 203.74,144.92 340.21,144.92 139.07,0 253.12,-48.74 343.12,-146.22 89.68,-97.48 134.52,-235.9 134.52,-415.26 0,-113.4 -19.17,-212.5 -57.51,-296.99 -38.34,-84.48 -94.55,-150.11 -168.31,-196.58 -74.09,-46.46 -156.94,-69.86 -248.9,-69.86 -130.62,0 -243.05,44.84 -337.28,134.52 -94.23,89.68 -141.34,239.15 -141.34,448.73zm1385.83 676.18l0 -1395.9 618.66 0c124.45,0 219.01,12.67 283.67,37.69 64.66,25.02 116.32,69.21 154.99,132.57 38.67,63.37 57.84,133.55 57.84,210.23 0,99.11 -32.17,182.61 -96.18,250.52 -64.01,67.92 -162.79,110.81 -296.66,129.33 49.06,23.39 86.1,46.79 111.45,69.53 53.94,49.39 104.95,111.45 152.71,185.86l241.43 380.17 -230.7 0 -184.56 -290.49c-53.62,-84.15 -98.13,-148.17 -132.9,-192.68 -35.09,-44.52 -66.29,-75.38 -93.9,-93.26 -27.3,-17.54 -55.57,-29.89 -84.16,-37.04 -20.8,-4.22 -54.91,-6.5 -102.68,-6.5l-213.8 0 0 619.97 -185.21 0zm185.21 -779.83l396.41 0c84.48,0 150.12,-8.78 197.56,-26.32 47.44,-17.22 83.51,-45.17 107.88,-83.83 24.69,-38.34 37.04,-79.94 37.04,-125.1 0,-65.96 -23.72,-120.55 -71.49,-163.12 -47.76,-42.56 -123.15,-63.68 -226.15,-63.68l-441.25 0 0 462.05zm1065.77 779.83l535.48 -1395.9 203.08 0 568.3 1395.9 -210.23 0 -161.49 -423.06 -587.79 0 -151.42 423.06 -195.93 0zm401.61 -573.18l475.7 0 -145.57 -386.99c-43.87,-117.62 -77.01,-214.78 -100.08,-291.46 -19.17,90.98 -44.84,180.34 -77.01,268.72l-153.04 409.73zm1262.03 573.18l0 -1232.13 -460.1 0 0 -163.77 1105.41 0 0 163.77 -460.1 0 0 1232.13 -185.21 0zm867.24 0l0 -1395.9 185.21 0 0 1395.9 -185.21 0zm453.93 -679.43c0,-231.35 62.39,-412.66 186.83,-543.61 124.45,-130.94 284.97,-196.25 481.88,-196.25 128.99,0 244.99,30.86 348.65,92.28 103.32,61.41 182.28,147.19 236.54,257.34 54.27,109.83 81.56,234.6 81.56,373.99 0,141.35 -28.59,268.07 -85.78,379.52 -57.19,111.78 -138.09,196.26 -242.72,253.45 -104.95,57.51 -218.03,86.1 -339.23,86.1 -131.6,0 -248.9,-31.84 -352.55,-95.2 -103.33,-63.36 -181.96,-149.79 -235.25,-259.62 -53.29,-109.5 -79.93,-225.5 -79.93,-348zm191.06 3.25c0,167.99 45.16,300.24 135.49,396.74 90.34,96.5 203.74,144.92 340.21,144.92 139.07,0 253.12,-48.74 343.12,-146.22 89.68,-97.48 134.52,-235.9 134.52,-415.26 0,-113.4 -19.17,-212.5 -57.51,-296.99 -38.34,-84.48 -94.55,-150.11 -168.31,-196.58 -74.09,-46.46 -156.94,-69.86 -248.9,-69.86 -130.62,0 -243.05,44.84 -337.28,134.52 -94.23,89.68 -141.34,239.15 -141.34,448.73zm1379.98 676.18l0 -1395.9 189.76 0 732.39 1095.66 0 -1095.66 177.41 0 0 1395.9 -189.76 0 -732.39 -1095.66 0 1095.66 -177.41 0z"/>
   <path class="fil1" d="M18401.67 14716.91c-1082.76,1056.93 -1916.09,1828.36 -3565.63,1815.11 -1237.32,-9.94 -2320.96,-498.02 -3179.16,-1363.05 -853.58,-860.38 -1287.29,-1902.39 -1287.29,-3143.67 0,-1239.35 429.1,-2287.88 1289.19,-3145.6 858.2,-857.72 1906.26,-1285.61 3146.09,-1285.61 793.64,0 1694.09,220.17 2404.45,661.12 14.03,8.71 27.76,17.53 41.36,26.41l597.93 -594.29 539.09 2368.04 -2166.28 -750.76 389.62 -387.25 -144.84 -116.69c-425.07,-342.46 -1079.91,-410.24 -1651.41,-410.24 -1002.5,0 -1859.23,321.58 -2552.23,1030.88 -693.01,709.3 -1038.58,1578.59 -1038.58,2603.99 0,1027.33 367.02,2076.62 1038.58,2602.06 1371.56,1073.12 2634.83,1499.15 4251.11,605.22 550.61,-304.53 1082.92,-693.33 1378.9,-1067.99l509.1 552.32z"/>
  </g>
 </g>
</svg>
